# xmcd
#
# Track frame offsets:
#	150
#	14530
#	27575
#	42100
#	55490
#	70102
#	88467
#	98585
#	122080
#	142845
#	164165
#	177677
#	192505
#	211305
#	229765
#	244902
#	254710
#	275982
#	297750
#	314010
#
# Disc length: 4367 seconds
#
# Revision: 6
# Processed by: cddbd v1.5.2PL0 Copyright (c) Steve Scherf et al.
# Submitted via: audiograbber 1.83.01
#
DISCID=44110d14
DTITLE=John Denver - Zijn grootste successen
DYEAR=1988
DGENRE=Country
TTITLE0=Take Me Home, Country Roads
TTITLE1=Follow Me
TTITLE2=Starwood In Aspen
TTITLE3=For Baby (For Bobbie)
TTITLE4=Rhymes And Reasons
TTITLE5=Leaving, On A Jet Plane
TTITLE6=The Eagle And The Hawk
TTITLE7=Sunshine On My Shoulders
TTITLE8=Poems, Prayers And Promises
TTITLE9=Rocky Mountain High
TTITLE10=Annie's Song
TTITLE11=Welcome To My Morning
TTITLE12=Fly Away
TTITLE13=Like A Sad Song
TTITLE14=Thank God I'm A Country Boy
TTITLE15=Grandma's Feather Bed
TTITLE16=Back Home Again
TTITLE17=My Sweet Lady
TTITLE18=Calypso
TTITLE19=This Old Guitar
EXTD=YEAR: 1988
EXTT0=
EXTT1=
EXTT2=
EXTT3=
EXTT4=
EXTT5=
EXTT6=
EXTT7=
EXTT8=
EXTT9=
EXTT10=
EXTT11=
EXTT12=
EXTT13=
EXTT14=
EXTT15=
EXTT16=
EXTT17=
EXTT18=
EXTT19=
PLAYORDER=
